<?xml version="1.0" encoding="utf-8"?>
<?xml-stylesheet type="text/xsl" href="rss1.xsl"?>
<rss version="2.0" xmlns:atom="http://www.w3.org/2005/Atom" xmlns:content="http://purl.org/rss/1.0/modules/content/" xmlns:dc="http://purl.org/dc/elements/1.1/" xmlns:media="http://search.yahoo.com/mrss/">
<channel>
 <title>Getty</title>
 <link>http://www.gettyimg.com/</link>
 <atom:link href="http://www.gettyimg.com/" rel="self" type="application/rss+xml" />

 
                <item>
                <title><![CDATA[【HD Live Performances】WEB-RiP - Tom Grennan - Live @ Glastonbury 2023 WEB-DL H264 1080p AAC2.0-ilya2129]]></title>
                <link><![CDATA[https://sharemania.us/threads/tom-grennan-live-glastonbury-2023-web-dl-h264-1080p-aac2-0-ilya2129.223357/]]></link>
                <description><![CDATA[<article>
<blockquote class="messageText SelectQuoteContainer ugc baseHtml">
<div style="text-align: center"><img src="https://i122.fastpic.org/big/2023/0623/b4/b37c6294354538a70aac338bdf3af5b4.png?r=1" class="bbCodeImage LbImage" alt="[​IMG]" data-url="https://i122.fastpic.org/big/2023/0623/b4/b37c6294354538a70aac338bdf3af5b4.png?r=1" style=""><br>
<br>
<a href="https://postimg.cc/XXWrnVkp" target="_blank" class="externalLink" rel="nofollow"><img src="https://i.postimg.cc/XXWrnVkp/vlcsnap-2023-06-25-14h11m55s857.png" class="bbCodeImage LbImage" alt="[​IMG]" data-url="https://i.postimg.cc/XXWrnVkp/vlcsnap-2023-06-25-14h11m55s857.png"></a> <a href="https://postimg.cc/QFvMwsMN" target="_blank" class="externalLink" rel="nofollow"><img src="https://i.postimg.cc/QFvMwsMN/vlcsnap-2023-06-25-14h11m57s001.png" class="bbCodeImage LbImage" alt="[​IMG]" data-url="https://i.postimg.cc/QFvMwsMN/vlcsnap-2023-06-25-14h11m57s001.png"></a> <a href="https://postimg.cc/0bWjG7Rw" target="_blank" class="externalLink" rel="nofollow"><img src="https://i.postimg.cc/0bWjG7Rw/vlcsnap-2023-06-25-14h11m58s366.png" class="bbCodeImage LbImage" alt="[​IMG]" data-url="https://i.postimg.cc/0bWjG7Rw/vlcsnap-2023-06-25-14h11m58s366.png"></a> <a href="https://postimg.cc/N2GGmjdD" target="_blank" class="externalLink" rel="nofollow"><img src="https://i.postimg.cc/N2GGmjdD/vlcsnap-2023-06-25-14h11m59s857.png" class="bbCodeImage LbImage" alt="[​IMG]" data-url="https://i.postimg.cc/N2GGmjdD/vlcsnap-2023-06-25-14h11m59s857.png"></a> <a href="https://postimg.cc/Hrrx6jdP" target="_blank" class="externalLink" rel="nofollow"><img src="https://i.postimg.cc/Hrrx6jdP/vlcsnap-2023-06-25-14h12m01s275.png" class="bbCodeImage LbImage" alt="[​IMG]" data-url="https://i.postimg.cc/Hrrx6jdP/vlcsnap-2023-06-25-14h12m01s275.png"></a> <a href="https://postimg.cc/qtn7dYts" target="_blank" class="externalLink" rel="nofollow"><img src="https://i.postimg.cc/qtn7dYts/vlcsnap-2023-06-25-14h12m03s018.png" class="bbCodeImage LbImage" alt="[​IMG]" data-url="https://i.postimg.cc/qtn7dYts/vlcsnap-2023-06-25-14h12m03s018.png"></a> <a href="https://postimg.cc/N9kfKHkL" target="_blank" class="externalLink" rel="nofollow"><img src="https://i.postimg.cc/N9kfKHkL/vlcsnap-2023-06-25-14h12m04s758.png" class="bbCodeImage LbImage" alt="[​IMG]" data-url="https://i.postimg.cc/N9kfKHkL/vlcsnap-2023-06-25-14h12m04s758.png"></a> <br>
<br>
<i><br>
If Only / Sober / Royal Highness / Barbed Wire<br>
How Does It Feel<br>
Crown Your Love (‘We Will Rock You’ intro)<br>
Don't Break the Heart<br>
All These Nights<br>
Here<br>
Let's Go Home Together (Ella Henderson cover)<br>
Found What I've Been Looking For<br>
Not Over Yet (KSI cover)<br>
All Goes Wrong (Chase &amp; Status cover)<br>
Lionheart (Fearless) (Joel Corry &amp; Tom Grennan cover)<br>
By Your Side (Calvin Harris cover)<br>
Remind Me<br>
Little Bit of Love<br>
</i><br>
​</div>
<div class="bbCodeBlock bbCodeCode">
<div class="type">Code:</div>
<pre>General
Complete name                            : D:\Tom Grennan - Live @ Glastonbury 2023 WEB-DL H264 1080p AAC2.0-ilya2129.mp4
Format                                   : MPEG-4
Format profile                           : Base Media
Codec ID                                 : isom (isom/iso2/avc1/mp41)
File size                                : 3.67 GiB
Duration                                 : 54 min 46 s
Overall bit rate mode                    : Variable
Overall bit rate                         : 9 579 kb/s
Frame rate                               : 50.000 FPS
Collection                               : Glastonbury: 2023
Season                                   : 2023
Album                                    : Glastonbury: 2023
Album/Performer                          : BBC TV
Part/Position                            : 2023
Track name                               : Tom Grennan
Grouping                                 : Music,Pop &amp; Chart,Performances &amp; Events
Performer                                : BBC Music
Composer                                 : BBC iPlayer
Genre                                    : Music
ContentType                              : TV Show
Description                              : Give a little bit of love to this Bedfordshire singer's smashing set.
Recorded date                            : 2023-06-25 08:23:07 UTC
Tagged date                              : 2023-06-25 08:23:08 UTC
Copyright                                : 2023 British Broadcasting Corporation, all rights reserved
Cover                                    : Yes
Lyrics                                   : Give a little bit of love to this Bedfordshire singer's smashing set. /  / PLAY: https://www.bbc.co.uk/iplayer/episode/p0ft6fd3 /  / INFO: https://www.bbc.co.uk/programmes/p0ft6fd3
Comment                                  : Give a little bit of love to this Bedfordshire singer's smashing set.
Part_ID                                  : p0ft6fd3
TVNetworkName                            : BBC Music
LongDescription                          : Give a little bit of love to this Bedfordshire singer's smashing set. /  / PLAY: https://www.bbc.co.uk/iplayer/episode/p0ft6fd3 /  / INFO: https://www.bbc.co.uk/programmes/p0ft6fd3

Video
ID                                       : 1
Format                                   : AVC
Format/Info                              : Advanced Video Codec
Format profile                           : High@L4.2
Format settings                          : CABAC / 4 Ref Frames
Format settings, CABAC                   : Yes
Format settings, Reference frames        : 4 frames
Codec ID                                 : avc1
Codec ID/Info                            : Advanced Video Coding
Duration                                 : 54 min 46 s
Bit rate mode                            : Variable
Bit rate                                 : 9 443 kb/s
Maximum bit rate                         : 12.0 Mb/s
Width                                    : 1 920 pixels
Height                                   : 1 080 pixels
Display aspect ratio                     : 16:9
Frame rate mode                          : Constant
Frame rate                               : 50.000 FPS
Color space                              : YUV
Chroma subsampling                       : 4:2:0
Bit depth                                : 8 bits
Scan type                                : Progressive
Bits/(Pixel*Frame)                       : 0.091
Stream size                              : 3.61 GiB (99%)
Color range                              : Limited
Color primaries                          : BT.709
Transfer characteristics                 : BT.709
Matrix coefficients                      : BT.709
Codec configuration box                  : avcC

Audio
ID                                       : 2
Format                                   : AAC LC
Format/Info                              : Advanced Audio Codec Low Complexity
Codec ID                                 : mp4a-40-2
Duration                                 : 54 min 46 s
Bit rate mode                            : Variable
Bit rate                                 : 128 kb/s
Maximum bit rate                         : 131 kb/s
Channel(s)                               : 2 channels
Channel layout                           : L R
Sampling rate                            : 48.0 kHz
Frame rate                               : 46.875 FPS (1024 SPF)
Compression mode                         : Lossy
Stream size                              : 50.1 MiB (1%)
Language                                 : English
Default                                  : Yes
Alternate group                          : 1


</pre>
</div>
<div class="bbCodeBlock bbCodeVfcHH HiddenContent">
<div class="attribution type">Hidden Content:</div>
<blockquote>You must reply before you can see the hidden data contained here.</blockquote>
</div>
<div class="messageTextEndMarker">&nbsp;</div>
</blockquote>
</article>]]></description>
                <author><![CDATA[ilya2129]]></author>
                </item>

                
                <item>
                <title><![CDATA[【HD Live Performances】WEB-RiP - Lizzo - Live @ Glastonbury 2023 WEB-DL H264 1080p AAC2.0-ilya2129]]></title>
                <link><![CDATA[https://sharemania.us/threads/lizzo-live-glastonbury-2023-web-dl-h264-1080p-aac2-0-ilya2129.223353/]]></link>
                <description><![CDATA[<article>
<blockquote class="messageText SelectQuoteContainer ugc baseHtml">
<div style="text-align: center"><img src="https://i122.fastpic.org/big/2023/0623/b4/b37c6294354538a70aac338bdf3af5b4.png?r=1" class="bbCodeImage LbImage" alt="[​IMG]" data-url="https://i122.fastpic.org/big/2023/0623/b4/b37c6294354538a70aac338bdf3af5b4.png?r=1" style=""><br>
<br>
<a href="https://postimg.cc/PCDB2kvk" target="_blank" class="externalLink" rel="nofollow"><img src="https://i.postimg.cc/PCDB2kvk/vlcsnap-2023-06-25-13h53m39s918.png" class="bbCodeImage LbImage" alt="[​IMG]" data-url="https://i.postimg.cc/PCDB2kvk/vlcsnap-2023-06-25-13h53m39s918.png"></a> <a href="https://postimg.cc/nj35CFgq" target="_blank" class="externalLink" rel="nofollow"><img src="https://i.postimg.cc/nj35CFgq/vlcsnap-2023-06-25-13h53m41s023.png" class="bbCodeImage LbImage" alt="[​IMG]" data-url="https://i.postimg.cc/nj35CFgq/vlcsnap-2023-06-25-13h53m41s023.png"></a> <a href="https://postimg.cc/nMLgNm92" target="_blank" class="externalLink" rel="nofollow"><img src="https://i.postimg.cc/nMLgNm92/vlcsnap-2023-06-25-13h53m42s483.png" class="bbCodeImage LbImage" alt="[​IMG]" data-url="https://i.postimg.cc/nMLgNm92/vlcsnap-2023-06-25-13h53m42s483.png"></a> <a href="https://postimg.cc/JycSCcQ6" target="_blank" class="externalLink" rel="nofollow"><img src="https://i.postimg.cc/JycSCcQ6/vlcsnap-2023-06-25-13h53m44s048.png" class="bbCodeImage LbImage" alt="[​IMG]" data-url="https://i.postimg.cc/JycSCcQ6/vlcsnap-2023-06-25-13h53m44s048.png"></a> <a href="https://postimg.cc/F1n8vKj4" target="_blank" class="externalLink" rel="nofollow"><img src="https://i.postimg.cc/F1n8vKj4/vlcsnap-2023-06-25-13h53m45s961.png" class="bbCodeImage LbImage" alt="[​IMG]" data-url="https://i.postimg.cc/F1n8vKj4/vlcsnap-2023-06-25-13h53m45s961.png"></a> <a href="https://postimg.cc/WFNCNFW2" target="_blank" class="externalLink" rel="nofollow"><img src="https://i.postimg.cc/WFNCNFW2/vlcsnap-2023-06-25-13h53m47s960.png" class="bbCodeImage LbImage" alt="[​IMG]" data-url="https://i.postimg.cc/WFNCNFW2/vlcsnap-2023-06-25-13h53m47s960.png"></a> <a href="https://postimg.cc/q6gFnfHS" target="_blank" class="externalLink" rel="nofollow"><img src="https://i.postimg.cc/q6gFnfHS/vlcsnap-2023-06-25-13h53m49s892.png" class="bbCodeImage LbImage" alt="[​IMG]" data-url="https://i.postimg.cc/q6gFnfHS/vlcsnap-2023-06-25-13h53m49s892.png"></a> <br>
<br>
<i><br>
Cuz I Love You (shortened)<br>
Juice<br>
2 Be Loved (Am I Ready)<br>
Soulmate<br>
Phone / Grrrls<br>
Boys<br>
Tempo<br>
Rumors<br>
Jerome<br>
Special<br>
I'm Every Woman (Chaka Khan cover)<br>
Everybody’s Gay<br>
Coldplay (with “Yellow” by Coldplay intro)<br>
Truth Hurts (with flute intro)<br>
I Love You Bitch<br>
Good as Hell<br>
About Damn Time (with flute solo and extended outro)<br>
</i><br>
<br>
​</div><br>
<div class="bbCodeBlock bbCodeCode">
<div class="type">Code:</div>
<pre>General
Complete name                            : D:\Lizzo - Live @ Glastonbury 2023 WEB-DL H264 1080p AAC2.0-ilya2129.mp4
Format                                   : MPEG-4
Format profile                           : Base Media
Codec ID                                 : isom (isom/iso2/avc1/mp41)
File size                                : 4.82 GiB
Duration                                 : 59 min 27 s
Overall bit rate mode                    : Variable
Overall bit rate                         : 11.6 Mb/s
Frame rate                               : 50.000 FPS
Collection                               : Glastonbury: 2023
Season                                   : 2023
Album                                    : Glastonbury: 2023
Album/Performer                          : BBC TV
Part/Position                            : 2023
Track name                               : Lizzo
Grouping                                 : Music,Performances &amp; Events,Hip Hop, RnB &amp; Dancehall
Performer                                : BBC Music
Composer                                 : BBC iPlayer
Genre                                    : Music
ContentType                              : TV Show
Description                              : Infectious energy and chart-topping tracks from an American superstar rapper.
Recorded date                            : 2023-06-25 06:38:02 UTC
Tagged date                              : 2023-06-25 06:38:02 UTC
Copyright                                : 2023 British Broadcasting Corporation, all rights reserved
Cover                                    : Yes
Lyrics                                   : Infectious energy and chart-topping tracks from an American superstar rapper. /  / PLAY: https://www.bbc.co.uk/iplayer/episode/p0ft26dx /  / INFO: https://www.bbc.co.uk/programmes/p0ft26dx
Comment                                  : Infectious energy and chart-topping tracks from an American superstar rapper.
Part_ID                                  : p0ft26dx
TVNetworkName                            : BBC Music
LongDescription                          : Infectious energy and chart-topping tracks from an American superstar rapper. /  / PLAY: https://www.bbc.co.uk/iplayer/episode/p0ft26dx /  / INFO: https://www.bbc.co.uk/programmes/p0ft26dx

Video
ID                                       : 1
Format                                   : AVC
Format/Info                              : Advanced Video Codec
Format profile                           : High@L4.2
Format settings                          : CABAC / 4 Ref Frames
Format settings, CABAC                   : Yes
Format settings, Reference frames        : 4 frames
Codec ID                                 : avc1
Codec ID/Info                            : Advanced Video Coding
Duration                                 : 59 min 27 s
Bit rate mode                            : Variable
Bit rate                                 : 11.5 Mb/s
Maximum bit rate                         : 12.0 Mb/s
Width                                    : 1 920 pixels
Height                                   : 1 080 pixels
Display aspect ratio                     : 16:9
Frame rate mode                          : Constant
Frame rate                               : 50.000 FPS
Color space                              : YUV
Chroma subsampling                       : 4:2:0
Bit depth                                : 8 bits
Scan type                                : Progressive
Bits/(Pixel*Frame)                       : 0.111
Stream size                              : 4.76 GiB (99%)
Color range                              : Limited
Color primaries                          : BT.709
Transfer characteristics                 : BT.709
Matrix coefficients                      : BT.709
Codec configuration box                  : avcC

Audio
ID                                       : 2
Format                                   : AAC LC
Format/Info                              : Advanced Audio Codec Low Complexity
Codec ID                                 : mp4a-40-2
Duration                                 : 59 min 27 s
Bit rate mode                            : Variable
Bit rate                                 : 128 kb/s
Maximum bit rate                         : 131 kb/s
Channel(s)                               : 2 channels
Channel layout                           : L R
Sampling rate                            : 48.0 kHz
Frame rate                               : 46.875 FPS (1024 SPF)
Compression mode                         : Lossy
Stream size                              : 54.4 MiB (1%)
Language                                 : English
Default                                  : Yes
Alternate group                          : 1

</pre>
</div>
<div class="bbCodeBlock bbCodeVfcHH HiddenContent">
<div class="attribution type">Hidden Content:</div>
<blockquote>You must reply before you can see the hidden data contained here.</blockquote>
</div>
<div class="messageTextEndMarker">&nbsp;</div>
</blockquote>
</article>]]></description>
                <author><![CDATA[ilya2129]]></author>
                </item>

                
                <item>
                <title><![CDATA[【Albums (lossless)】FLAC - Daft Punk - Alive 2007 (Vinyl) [24bit-96kHz]]]></title>
                <link><![CDATA[https://sharemania.us/threads/daft-punk-alive-2007-vinyl-24bit-96khz.223354/]]></link>
                <description><![CDATA[<article>
<blockquote class="messageText SelectQuoteContainer ugc baseHtml">
<img src="https://cdn.discordapp.com/attachments/694889687214719066/1122479720961953822/cover.jpg" class="bbCodeImage LbImage" alt="[​IMG]" data-url="https://cdn.discordapp.com/attachments/694889687214719066/1122479720961953822/cover.jpg" style=""><br>
<b>Daft Punk - Alive 2007 (Atlantic – 0825646225354, 2014 Deluxe Edition Box Set)<br>
Includes Encore Track "Human After All/Together/One More Time/Music Sounds Better With You"</b><br>
<div class="bbCodeBlock bbCodeVfcHH HiddenContent">
<div class="attribution type">Hidden Content:</div>
<blockquote>You must either reply or click 'Like' to see the hidden information contained here.</blockquote>
</div>
<div class="messageTextEndMarker">&nbsp;</div>
</blockquote>
</article>]]></description>
                <author><![CDATA[n45lr]]></author>
                </item>

                
                <item>
                <title><![CDATA[【HD Live Performances】WEB-RiP - Rick Astley - Live @ Glastonbury 2023 WEB-DL H264 1080p AAC2.0-ilya2129]]></title>
                <link><![CDATA[https://sharemania.us/threads/rick-astley-live-glastonbury-2023-web-dl-h264-1080p-aac2-0-ilya2129.223355/]]></link>
                <description><![CDATA[<article>
<blockquote class="messageText SelectQuoteContainer ugc baseHtml">
<div style="text-align: center"><img src="https://i122.fastpic.org/big/2023/0623/b4/b37c6294354538a70aac338bdf3af5b4.png?r=1" class="bbCodeImage LbImage" alt="[​IMG]" data-url="https://i122.fastpic.org/big/2023/0623/b4/b37c6294354538a70aac338bdf3af5b4.png?r=1" style=""><br>
<br>
<a href="https://postimg.cc/Yj1RnqbR" target="_blank" class="externalLink" rel="nofollow"><img src="https://i.postimg.cc/Yj1RnqbR/vlcsnap-2023-06-25-13h58m18s130.png" class="bbCodeImage LbImage" alt="[​IMG]" data-url="https://i.postimg.cc/Yj1RnqbR/vlcsnap-2023-06-25-13h58m18s130.png"></a> <a href="https://postimg.cc/PPy4HVG8" target="_blank" class="externalLink" rel="nofollow"><img src="https://i.postimg.cc/PPy4HVG8/vlcsnap-2023-06-25-13h58m20s616.png" class="bbCodeImage LbImage" alt="[​IMG]" data-url="https://i.postimg.cc/PPy4HVG8/vlcsnap-2023-06-25-13h58m20s616.png"></a> <a href="https://postimg.cc/zyPFbLGz" target="_blank" class="externalLink" rel="nofollow"><img src="https://i.postimg.cc/zyPFbLGz/vlcsnap-2023-06-25-13h58m22s235.png" class="bbCodeImage LbImage" alt="[​IMG]" data-url="https://i.postimg.cc/zyPFbLGz/vlcsnap-2023-06-25-13h58m22s235.png"></a> <a href="https://postimg.cc/Ny971gK1" target="_blank" class="externalLink" rel="nofollow"><img src="https://i.postimg.cc/Ny971gK1/vlcsnap-2023-06-25-13h58m23s590.png" class="bbCodeImage LbImage" alt="[​IMG]" data-url="https://i.postimg.cc/Ny971gK1/vlcsnap-2023-06-25-13h58m23s590.png"></a> <a href="https://postimg.cc/hXG0t8gZ" target="_blank" class="externalLink" rel="nofollow"><img src="https://i.postimg.cc/hXG0t8gZ/vlcsnap-2023-06-25-13h58m25s170.png" class="bbCodeImage LbImage" alt="[​IMG]" data-url="https://i.postimg.cc/hXG0t8gZ/vlcsnap-2023-06-25-13h58m25s170.png"></a> <a href="https://postimg.cc/sBkPmtWb" target="_blank" class="externalLink" rel="nofollow"><img src="https://i.postimg.cc/sBkPmtWb/vlcsnap-2023-06-25-13h58m26s747.png" class="bbCodeImage LbImage" alt="[​IMG]" data-url="https://i.postimg.cc/sBkPmtWb/vlcsnap-2023-06-25-13h58m26s747.png"></a> <br>
<br>
<i><br>
Together Forever<br>
Keep Singing<br>
As It Was (Harry Styles cover)<br>
Cry for Help<br>
Dippin' My Feet<br>
Dance<br>
Whenever You Need Somebody / Good Times<br>
Highway to Hell (AC/DC cover) (Rick on drums)<br>
Never Gonna Give You Up (with We Will Rock You guitar solo)<br>
</i><br>
<br>
​</div><br>
<div class="bbCodeBlock bbCodeCode">
<div class="type">Code:</div>
<pre>General
Complete name                            : D:\Rick Astley - Live @ Glastonbury 2023 WEB-DL H264 1080p AAC2.0-ilya2129.mp4
Format                                   : MPEG-4
Format profile                           : Base Media
Codec ID                                 : isom (isom/iso2/avc1/mp41)
File size                                : 3.16 GiB
Duration                                 : 44 min 23 s
Overall bit rate mode                    : Variable
Overall bit rate                         : 10.2 Mb/s
Frame rate                               : 50.000 FPS
Collection                               : Glastonbury: 2023
Season                                   : 2023
Album                                    : Glastonbury: 2023
Album/Performer                          : BBC TV
Part/Position                            : 2023
Track name                               : Rick Astley
Grouping                                 : Music,Pop &amp; Chart,Performances &amp; Events
Performer                                : BBC Music
Composer                                 : BBC iPlayer
Genre                                    : Music
ContentType                              : TV Show
Description                              : A set from this 80s pop icon is never gonna let you down.
Recorded date                            : 2023-06-25 08:36:03 UTC
Tagged date                              : 2023-06-25 08:36:03 UTC
Copyright                                : 2023 British Broadcasting Corporation, all rights reserved
Cover                                    : Yes
Lyrics                                   : A set from this 80s pop icon is never gonna let you down. /  / PLAY: https://www.bbc.co.uk/iplayer/episode/p0ft6dj2 /  / INFO: https://www.bbc.co.uk/programmes/p0ft6dj2
Comment                                  : A set from this 80s pop icon is never gonna let you down.
Part_ID                                  : p0ft6dj2
TVNetworkName                            : BBC Music
LongDescription                          : A set from this 80s pop icon is never gonna let you down. /  / PLAY: https://www.bbc.co.uk/iplayer/episode/p0ft6dj2 /  / INFO: https://www.bbc.co.uk/programmes/p0ft6dj2

Video
ID                                       : 1
Format                                   : AVC
Format/Info                              : Advanced Video Codec
Format profile                           : High@L4.2
Format settings                          : CABAC / 4 Ref Frames
Format settings, CABAC                   : Yes
Format settings, Reference frames        : 4 frames
Codec ID                                 : avc1
Codec ID/Info                            : Advanced Video Coding
Duration                                 : 44 min 23 s
Bit rate mode                            : Variable
Bit rate                                 : 10.1 Mb/s
Maximum bit rate                         : 12.0 Mb/s
Width                                    : 1 920 pixels
Height                                   : 1 080 pixels
Display aspect ratio                     : 16:9
Frame rate mode                          : Constant
Frame rate                               : 50.000 FPS
Color space                              : YUV
Chroma subsampling                       : 4:2:0
Bit depth                                : 8 bits
Scan type                                : Progressive
Bits/(Pixel*Frame)                       : 0.097
Stream size                              : 3.12 GiB (99%)
Color range                              : Limited
Color primaries                          : BT.709
Transfer characteristics                 : BT.709
Matrix coefficients                      : BT.709
Codec configuration box                  : avcC

Audio
ID                                       : 2
Format                                   : AAC LC
Format/Info                              : Advanced Audio Codec Low Complexity
Codec ID                                 : mp4a-40-2
Duration                                 : 44 min 23 s
Bit rate mode                            : Variable
Bit rate                                 : 128 kb/s
Maximum bit rate                         : 131 kb/s
Channel(s)                               : 2 channels
Channel layout                           : L R
Sampling rate                            : 48.0 kHz
Frame rate                               : 46.875 FPS (1024 SPF)
Compression mode                         : Lossy
Stream size                              : 40.6 MiB (1%)
Language                                 : English
Default                                  : Yes
Alternate group                          : 1
</pre>
</div>
<div class="bbCodeBlock bbCodeVfcHH HiddenContent">
<div class="attribution type">Hidden Content:</div>
<blockquote>You must reply before you can see the hidden data contained here.</blockquote>
</div>
<div class="messageTextEndMarker">&nbsp;</div>
</blockquote>
</article>]]></description>
                <author><![CDATA[ilya2129]]></author>
                </item>

                
                <item>
                <title><![CDATA[【HD Live Performances】WEB-RiP - Maggie Rogers - Live @ Glastonbury 2023 WEB-DL H264 1080p AAC2.0-ilya2129]]></title>
                <link><![CDATA[https://sharemania.us/threads/maggie-rogers-live-glastonbury-2023-web-dl-h264-1080p-aac2-0-ilya2129.223356/]]></link>
                <description><![CDATA[<article>
<blockquote class="messageText SelectQuoteContainer ugc baseHtml">
<div style="text-align: center"><img src="https://i122.fastpic.org/big/2023/0623/b4/b37c6294354538a70aac338bdf3af5b4.png?r=1" class="bbCodeImage LbImage" alt="[​IMG]" data-url="https://i122.fastpic.org/big/2023/0623/b4/b37c6294354538a70aac338bdf3af5b4.png?r=1" style=""><br>
<br>
<a href="https://postimg.cc/ygzDGBN4" target="_blank" class="externalLink" rel="nofollow"><img src="https://i.postimg.cc/ygzDGBN4/vlcsnap-2023-06-25-14h05m53s518.png" class="bbCodeImage LbImage" alt="[​IMG]" data-url="https://i.postimg.cc/ygzDGBN4/vlcsnap-2023-06-25-14h05m53s518.png"></a> <a href="https://postimg.cc/7fbZmbNJ" target="_blank" class="externalLink" rel="nofollow"><img src="https://i.postimg.cc/7fbZmbNJ/vlcsnap-2023-06-25-14h05m55s153.png" class="bbCodeImage LbImage" alt="[​IMG]" data-url="https://i.postimg.cc/7fbZmbNJ/vlcsnap-2023-06-25-14h05m55s153.png"></a> <a href="https://postimg.cc/yDZYC5tV" target="_blank" class="externalLink" rel="nofollow"><img src="https://i.postimg.cc/yDZYC5tV/vlcsnap-2023-06-25-14h05m56s394.png" class="bbCodeImage LbImage" alt="[​IMG]" data-url="https://i.postimg.cc/yDZYC5tV/vlcsnap-2023-06-25-14h05m56s394.png"></a> <a href="https://postimg.cc/NLd06RRw" target="_blank" class="externalLink" rel="nofollow"><img src="https://i.postimg.cc/NLd06RRw/vlcsnap-2023-06-25-14h05m57s560.png" class="bbCodeImage LbImage" alt="[​IMG]" data-url="https://i.postimg.cc/NLd06RRw/vlcsnap-2023-06-25-14h05m57s560.png"></a> <a href="https://postimg.cc/XZ6NjL69" target="_blank" class="externalLink" rel="nofollow"><img src="https://i.postimg.cc/XZ6NjL69/vlcsnap-2023-06-25-14h05m59s242.png" class="bbCodeImage LbImage" alt="[​IMG]" data-url="https://i.postimg.cc/XZ6NjL69/vlcsnap-2023-06-25-14h05m59s242.png"></a> <a href="https://postimg.cc/9wQQ3f5S" target="_blank" class="externalLink" rel="nofollow"><img src="https://i.postimg.cc/9wQQ3f5S/vlcsnap-2023-06-25-14h06m01s563.png" class="bbCodeImage LbImage" alt="[​IMG]" data-url="https://i.postimg.cc/9wQQ3f5S/vlcsnap-2023-06-25-14h06m01s563.png"></a> <br>
<br>
<i><br>
Overdrive<br>
Want Want<br>
Say It<br>
Shatter<br>
Be Cool<br>
Alaska<br>
Anywhere With You<br>
Retrograde<br>
Love You for a Long Time<br>
Fallingwater<br>
Light On<br>
That's Where I Am<br>
</i><br>
​</div>
<div class="bbCodeBlock bbCodeCode">
<div class="type">Code:</div>
<pre>General
Complete name                            : D:\Maggie Rogers - Live @ Glastonbury 2023 WEB-DL H264 1080p AAC2.0-ilya2129.mp4
Format                                   : MPEG-4
Format profile                           : Base Media
Codec ID                                 : isom (isom/iso2/avc1/mp41)
File size                                : 3.65 GiB
Duration                                 : 49 min 33 s
Overall bit rate mode                    : Variable
Overall bit rate                         : 10.5 Mb/s
Frame rate                               : 50.000 FPS
Collection                               : Glastonbury: 2023
Season                                   : 2023
Album                                    : Glastonbury: 2023
Album/Performer                          : BBC TV
Part/Position                            : 2023
Track name                               : Maggie Rogers
Grouping                                 : Music,Pop &amp; Chart,Performances &amp; Events
Performer                                : BBC Music
Composer                                 : BBC iPlayer
Genre                                    : Music
ContentType                              : TV Show
Description                              : Melodic alt-pop from a masterful American singer-songwriter.
Recorded date                            : 2023-06-25 08:11:08 UTC
Tagged date                              : 2023-06-25 08:11:08 UTC
Copyright                                : 2023 British Broadcasting Corporation, all rights reserved
Cover                                    : Yes
Lyrics                                   : Melodic alt-pop from a masterful American singer-songwriter. /  / PLAY: https://www.bbc.co.uk/iplayer/episode/p0ft6f2t /  / INFO: https://www.bbc.co.uk/programmes/p0ft6f2t
Comment                                  : Melodic alt-pop from a masterful American singer-songwriter.
Part_ID                                  : p0ft6f2t
TVNetworkName                            : BBC Music
LongDescription                          : Melodic alt-pop from a masterful American singer-songwriter. /  / PLAY: https://www.bbc.co.uk/iplayer/episode/p0ft6f2t /  / INFO: https://www.bbc.co.uk/programmes/p0ft6f2t

Video
ID                                       : 1
Format                                   : AVC
Format/Info                              : Advanced Video Codec
Format profile                           : High@L4.2
Format settings                          : CABAC / 4 Ref Frames
Format settings, CABAC                   : Yes
Format settings, Reference frames        : 4 frames
Codec ID                                 : avc1
Codec ID/Info                            : Advanced Video Coding
Duration                                 : 49 min 33 s
Bit rate mode                            : Variable
Bit rate                                 : 10.4 Mb/s
Maximum bit rate                         : 12.0 Mb/s
Width                                    : 1 920 pixels
Height                                   : 1 080 pixels
Display aspect ratio                     : 16:9
Frame rate mode                          : Constant
Frame rate                               : 50.000 FPS
Color space                              : YUV
Chroma subsampling                       : 4:2:0
Bit depth                                : 8 bits
Scan type                                : Progressive
Bits/(Pixel*Frame)                       : 0.100
Stream size                              : 3.60 GiB (99%)
Color range                              : Limited
Color primaries                          : BT.709
Transfer characteristics                 : BT.709
Matrix coefficients                      : BT.709
Codec configuration box                  : avcC

Audio
ID                                       : 2
Format                                   : AAC LC
Format/Info                              : Advanced Audio Codec Low Complexity
Codec ID                                 : mp4a-40-2
Duration                                 : 49 min 33 s
Bit rate mode                            : Variable
Bit rate                                 : 128 kb/s
Maximum bit rate                         : 131 kb/s
Channel(s)                               : 2 channels
Channel layout                           : L R
Sampling rate                            : 48.0 kHz
Frame rate                               : 46.875 FPS (1024 SPF)
Compression mode                         : Lossy
Stream size                              : 45.4 MiB (1%)
Language                                 : English
Default                                  : Yes
Alternate group                          : 1

</pre>
</div>
<div class="bbCodeBlock bbCodeVfcHH HiddenContent">
<div class="attribution type">Hidden Content:</div>
<blockquote>You must reply before you can see the hidden data contained here.</blockquote>
</div>
<div class="messageTextEndMarker">&nbsp;</div>
</blockquote>
</article>]]></description>
                <author><![CDATA[ilya2129]]></author>
                </item>

                
                <item>
                <title><![CDATA[【HD Live Performances】WEB-RiP - Rina Sawayama - Live @ Glastonbury 2023 WEB-DL H264 1080p AAC2.0-ilya2129]]></title>
                <link><![CDATA[https://sharemania.us/threads/rina-sawayama-live-glastonbury-2023-web-dl-h264-1080p-aac2-0-ilya2129.223352/]]></link>
                <description><![CDATA[<article>
<blockquote class="messageText SelectQuoteContainer ugc baseHtml">
<div style="text-align: center"><img src="https://i122.fastpic.org/big/2023/0623/b4/b37c6294354538a70aac338bdf3af5b4.png?r=1" class="bbCodeImage LbImage" alt="[​IMG]" data-url="https://i122.fastpic.org/big/2023/0623/b4/b37c6294354538a70aac338bdf3af5b4.png?r=1" style=""><br>
<br>
<a href="https://postimg.cc/fk6DM5N5" target="_blank" class="externalLink" rel="nofollow"><img src="https://i.postimg.cc/fk6DM5N5/vlcsnap-2023-06-25-13h46m42s548.png" class="bbCodeImage LbImage" alt="[​IMG]" data-url="https://i.postimg.cc/fk6DM5N5/vlcsnap-2023-06-25-13h46m42s548.png"></a> <a href="https://postimg.cc/gLR9wFWs" target="_blank" class="externalLink" rel="nofollow"><img src="https://i.postimg.cc/gLR9wFWs/vlcsnap-2023-06-25-13h46m45s605.png" class="bbCodeImage LbImage" alt="[​IMG]" data-url="https://i.postimg.cc/gLR9wFWs/vlcsnap-2023-06-25-13h46m45s605.png"></a> <a href="https://postimg.cc/fVvNjN0g" target="_blank" class="externalLink" rel="nofollow"><img src="https://i.postimg.cc/fVvNjN0g/vlcsnap-2023-06-25-13h46m47s253.png" class="bbCodeImage LbImage" alt="[​IMG]" data-url="https://i.postimg.cc/fVvNjN0g/vlcsnap-2023-06-25-13h46m47s253.png"></a> <a href="https://postimg.cc/nsRfgG24" target="_blank" class="externalLink" rel="nofollow"><img src="https://i.postimg.cc/nsRfgG24/vlcsnap-2023-06-25-13h46m49s402.png" class="bbCodeImage LbImage" alt="[​IMG]" data-url="https://i.postimg.cc/nsRfgG24/vlcsnap-2023-06-25-13h46m49s402.png"></a> <a href="https://postimg.cc/mzKf2Z0h" target="_blank" class="externalLink" rel="nofollow"><img src="https://i.postimg.cc/mzKf2Z0h/vlcsnap-2023-06-25-13h46m51s102.png" class="bbCodeImage LbImage" alt="[​IMG]" data-url="https://i.postimg.cc/mzKf2Z0h/vlcsnap-2023-06-25-13h46m51s102.png"></a> <a href="https://postimg.cc/p9Xts6fV" target="_blank" class="externalLink" rel="nofollow"><img src="https://i.postimg.cc/p9Xts6fV/vlcsnap-2023-06-25-13h46m52s710.png" class="bbCodeImage LbImage" alt="[​IMG]" data-url="https://i.postimg.cc/p9Xts6fV/vlcsnap-2023-06-25-13h46m52s710.png"></a> <br>
<br>
<i><br>
Hold the Girl<br>
Hurricanes<br>
Dynasty<br>
Akasaka Sad<br>
Imagining<br>
STFU!<br>
Frankenstein<br>
Bad Friend<br>
Beg for You (Charli XCX cover)<br>
LUCID<br>
Comme des garçons (Like the Boys)<br>
XS<br>
This Hell<br>
</i><br>
<br>
​</div><br>
<div class="bbCodeBlock bbCodeCode">
<div class="type">Code:</div>
<pre>General
Complete name                            : D:\Rina Sawayama - Live @ Glastonbury 2023 WEB-DL H264 1080p AAC2.0-ilya2129.mp4
Format                                   : MPEG-4
Format profile                           : Base Media
Codec ID                                 : isom (isom/iso2/avc1/mp41)
File size                                : 3.95 GiB
Duration                                 : 57 min 0 s
Overall bit rate mode                    : Variable
Overall bit rate                         : 9 922 kb/s
Frame rate                               : 50.000 FPS
Collection                               : Glastonbury: 2023
Season                                   : 2023
Album                                    : Glastonbury: 2023
Album/Performer                          : BBC TV
Part/Position                            : 2023
Track name                               : Rina Sawayama
Grouping                                 : Music,Pop &amp; Chart,Performances &amp; Events
Performer                                : BBC Music
Composer                                 : BBC iPlayer
Genre                                    : Music
ContentType                              : TV Show
Description                              : Atmospheric alt-pop from a breakthrough superstar.
Recorded date                            : 2023-06-25 07:45:32 UTC
Tagged date                              : 2023-06-25 07:45:32 UTC
Copyright                                : 2023 British Broadcasting Corporation, all rights reserved
Cover                                    : Yes
Lyrics                                   : Atmospheric alt-pop from a breakthrough superstar. /  / PLAY: https://www.bbc.co.uk/iplayer/episode/p0ft6v88 /  / INFO: https://www.bbc.co.uk/programmes/p0ft6v88
Comment                                  : Atmospheric alt-pop from a breakthrough superstar.
Part_ID                                  : p0ft6v88
TVNetworkName                            : BBC Music
LongDescription                          : Atmospheric alt-pop from a breakthrough superstar. /  / PLAY: https://www.bbc.co.uk/iplayer/episode/p0ft6v88 /  / INFO: https://www.bbc.co.uk/programmes/p0ft6v88

Video
ID                                       : 1
Format                                   : AVC
Format/Info                              : Advanced Video Codec
Format profile                           : High@L4.2
Format settings                          : CABAC / 4 Ref Frames
Format settings, CABAC                   : Yes
Format settings, Reference frames        : 4 frames
Codec ID                                 : avc1
Codec ID/Info                            : Advanced Video Coding
Duration                                 : 57 min 0 s
Bit rate mode                            : Variable
Bit rate                                 : 9 786 kb/s
Maximum bit rate                         : 12.0 Mb/s
Width                                    : 1 920 pixels
Height                                   : 1 080 pixels
Display aspect ratio                     : 16:9
Frame rate mode                          : Constant
Frame rate                               : 50.000 FPS
Color space                              : YUV
Chroma subsampling                       : 4:2:0
Bit depth                                : 8 bits
Scan type                                : Progressive
Bits/(Pixel*Frame)                       : 0.094
Stream size                              : 3.90 GiB (99%)
Color range                              : Limited
Color primaries                          : BT.709
Transfer characteristics                 : BT.709
Matrix coefficients                      : BT.709
Codec configuration box                  : avcC

Audio
ID                                       : 2
Format                                   : AAC LC
Format/Info                              : Advanced Audio Codec Low Complexity
Codec ID                                 : mp4a-40-2
Duration                                 : 56 min 59 s
Bit rate mode                            : Variable
Bit rate                                 : 128 kb/s
Maximum bit rate                         : 131 kb/s
Channel(s)                               : 2 channels
Channel layout                           : L R
Sampling rate                            : 48.0 kHz
Frame rate                               : 46.875 FPS (1024 SPF)
Compression mode                         : Lossy
Stream size                              : 52.2 MiB (1%)
Language                                 : English
Default                                  : Yes
Alternate group                          : 1


</pre>
</div>
<div class="bbCodeBlock bbCodeVfcHH HiddenContent">
<div class="attribution type">Hidden Content:</div>
<blockquote>You must reply before you can see the hidden data contained here.</blockquote>
</div>
<div class="messageTextEndMarker">&nbsp;</div>
</blockquote>
</article>]]></description>
                <author><![CDATA[ilya2129]]></author>
                </item>

                </channel></rss>